<?xml version="1.0" encoding="UTF-8" standalone="no"?>
<!-- Created with Inkscape (http://www.inkscape.org/) -->

<svg
   xmlns:dc="http://purl.org/dc/elements/1.1/"
   xmlns:cc="http://creativecommons.org/ns#"
   xmlns:rdf="http://www.w3.org/1999/02/22-rdf-syntax-ns#"
   xmlns:svg="http://www.w3.org/2000/svg"
   xmlns="http://www.w3.org/2000/svg"
   xmlns:xlink="http://www.w3.org/1999/xlink"
   xmlns:sodipodi="http://sodipodi.sourceforge.net/DTD/sodipodi-0.dtd"
   xmlns:inkscape="http://www.inkscape.org/namespaces/inkscape"
   width="210mm"
   height="297mm"
   viewBox="0 0 210 297"
   version="1.1"
   id="svg862"
   inkscape:version="0.92.2 (5c3e80d, 2017-08-06)"
   sodipodi:docname="laughing_man.svg">
  <title
     id="title1576">Lauhging Man Logo from Ghost In The Shell - Stand Alone Complex</title>
  <defs
     id="defs856">
    <circle
       r="143.90036"
       cy="524.72754"
       cx="359.75089"
       style="fill:none;fill-opacity:0.75;fill-rule:evenodd;stroke:none;stroke-width:1px;stroke-linecap:butt;stroke-linejoin:miter;stroke-opacity:1"
       id="path1366"
       transform="matrix(-0.290035,-0.80077,0.80077,-0.290035,72.83368,979.0889)" />
  </defs>
  <sodipodi:namedview
     id="base"
     pagecolor="#ffffff"
     bordercolor="#666666"
     borderopacity="1.0"
     inkscape:pageopacity="0.0"
     inkscape:pageshadow="2"
     inkscape:zoom="0.35"
     inkscape:cx="-170"
     inkscape:cy="560"
     inkscape:document-units="mm"
     inkscape:current-layer="layer1"
     showgrid="false"
     inkscape:window-width="1858"
     inkscape:window-height="1057"
     inkscape:window-x="1912"
     inkscape:window-y="79"
     inkscape:window-maximized="1" />
  <metadata
     id="metadata859">
    <rdf:RDF>
      <cc:Work
         rdf:about="">
        <dc:format>image/svg+xml</dc:format>
        <dc:type
           rdf:resource="http://purl.org/dc/dcmitype/StillImage" />
        <dc:title>Lauhging Man Logo from Ghost In The Shell - Stand Alone Complex</dc:title>
        <cc:license
           rdf:resource="http://creativecommons.org/licenses/by-nc-sa/4.0/" />
        <dc:date>2006-07-07</dc:date>
        <dc:creator>
          <cc:Agent>
            <dc:title>Paul Nicholson</dc:title>
          </cc:Agent>
        </dc:creator>
        <dc:description>I (Weird Constructor) traced the SVG back in 2006 directly from the Anime. It was a long time online on one of a friends website. I decided to upload it to Github 2018.

The rights of the original logo and it's copyrights belong to the original creator and anime studio. However, there are lots of people who don't care....</dc:description>
      </cc:Work>
      <cc:License
         rdf:about="http://creativecommons.org/licenses/by-nc-sa/4.0/">
        <cc:permits
           rdf:resource="http://creativecommons.org/ns#Reproduction" />
        <cc:permits
           rdf:resource="http://creativecommons.org/ns#Distribution" />
        <cc:requires
           rdf:resource="http://creativecommons.org/ns#Notice" />
        <cc:requires
           rdf:resource="http://creativecommons.org/ns#Attribution" />
        <cc:prohibits
           rdf:resource="http://creativecommons.org/ns#CommercialUse" />
        <cc:permits
           rdf:resource="http://creativecommons.org/ns#DerivativeWorks" />
        <cc:requires
           rdf:resource="http://creativecommons.org/ns#ShareAlike" />
      </cc:License>
    </rdf:RDF>
  </metadata>
  <g
     inkscape:label="Layer 1"
     inkscape:groupmode="layer"
     id="layer1">
    <g
       transform="matrix(0.26458333,0,0,0.26458333,-49.986542,-90.491757)"
       id="g1504">
      <circle
         r="143.90036"
         cy="524.72754"
         cx="359.75089"
         style="fill:none;fill-opacity:0.75;fill-rule:evenodd;stroke:none;stroke-width:1px;stroke-linecap:butt;stroke-linejoin:miter;stroke-opacity:1"
         id="path1515"
         transform="matrix(-0.290035,-0.80077,0.80077,-0.290035,72.83368,979.0889)" />
      <ellipse
         ry="29.704041"
         rx="29.704071"
         cy="521.9325"
         cx="548.25208"
         style="fill:#ffffff;fill-opacity:1;fill-rule:evenodd;stroke:none;stroke-width:1.00000003pt;stroke-linecap:butt;stroke-linejoin:miter;stroke-opacity:1"
         id="path1066"
         transform="matrix(0.877682,0,0,0.877682,69.23047,80.26008)" />
      <path
         inkscape:connector-curvature="0"
         style="font-size:12px;fill:#004b73;fill-opacity:0.99610003;fill-rule:evenodd;stroke:none;stroke-width:1.25"
         d="m 548.00601,538.79407 c 0,87.87791 -71.31166,159.07986 -159.35414,159.07986 -87.98762,0 -159.29928,-71.20195 -159.29928,-159.07986 0,-87.82306 71.31166,-159.02501 159.29928,-159.02501 88.04248,0 159.35414,71.20195 159.35414,159.02501 z m -10.53219,-0.21942 c 0,81.84384 -66.64897,148.2734 -148.82195,148.2734 -82.22783,0 -148.82195,-66.42956 -148.82195,-148.2734 0,-81.89871 66.59412,-148.27341 148.82195,-148.27341 82.17298,0 148.82195,66.3747 148.82195,148.27341 z"
         id="path663" />
      <path
         inkscape:connector-curvature="0"
         style="font-size:12px;fill:#004b73;fill-opacity:1;fill-rule:evenodd;stroke:none;stroke-width:1.25"
         d="m 503.49981,539.69703 c 0,63.79651 -51.8381,115.52489 -115.74432,115.52489 -63.96107,0 -115.74431,-51.72838 -115.74431,-115.52489 0,-63.85137 51.78324,-115.57975 115.74431,-115.57975 63.90622,0 115.74432,51.72838 115.74432,115.57975 z m -18.04734,0.21942 c 0,52.93519 -43.06127,95.8319 -96.16103,95.8319 -53.15462,0 -96.21589,-42.89671 -96.21589,-95.8319 0,-52.9352 43.06127,-95.83191 96.21589,-95.83191 53.09976,0 96.16103,42.89671 96.16103,95.83191 z"
         id="path666" />
      <rect
         style="font-size:12px;fill:#004b73;fill-opacity:1;fill-rule:evenodd;stroke-width:1"
         id="rect667"
         width="15.642282"
         height="20.856384"
         x="381.70377"
         y="418.80341" />
      <path
         inkscape:connector-curvature="0"
         style="font-size:12px;fill:#004b73;fill-opacity:1;fill-rule:evenodd;stroke:none;stroke-width:1"
         d="m 582.78416,538.79407 c 0,18.92501 -15.35944,34.28445 -34.2296,34.28445 -18.92502,0 -34.28445,-15.35944 -34.28445,-34.28445 0,-18.87017 15.35943,-34.2296 34.28445,-34.2296 18.87016,0 34.2296,15.35943 34.2296,34.2296 z m -19.69299,0.32913 c 0,8.61225 -7.02146,15.63371 -15.63371,15.63371 -8.66711,0 -15.68857,-7.02146 -15.68857,-15.63371 0,-8.66711 7.02146,-15.68857 15.68857,-15.68857 8.61225,0 15.63371,7.02146 15.63371,15.68857 z"
         id="path670" />
      <path
         inkscape:connector-curvature="0"
         style="font-size:12px;fill:#004b73;fill-rule:evenodd"
         d="m 474.22586,554.75691 c -7.40544,40.04424 -42.56757,70.37912 -84.75116,70.37912 -42.18359,0 -77.34573,-30.33488 -84.80603,-70.37912 h 21.55807 c 6.91174,28.46981 32.6388,49.53418 63.24796,49.53418 30.60916,0 56.33621,-21.06437 63.24796,-49.53418 z m -147.99912,0 h 126.49592"
         id="path691" />
      <rect
         style="font-size:12px;fill:#004b73;fill-opacity:1;fill-rule:evenodd;stroke-width:1"
         id="rect709"
         width="148.97415"
         height="18.313845"
         x="315.03778"
         y="554.74243" />
      <path
         inkscape:connector-curvature="0"
         style="font-size:12px;fill:#004b73;fill-opacity:1;fill-rule:evenodd;stroke:none;stroke-width:1"
         d="m 367.92374,549.90069 c -17.31824,-13.78013 -27.17321,-13.78013 -43.94747,0 5.57205,-24.9532 37.06899,-24.9532 43.94747,0 z"
         id="path716"
         sodipodi:nodetypes="ccc" />
      <path
         inkscape:connector-curvature="0"
         style="font-size:12px;fill:#004b73;fill-opacity:1;fill-rule:evenodd;stroke:none;stroke-width:1"
         d="m 453.02563,549.90069 c -17.31824,-13.78013 -27.17321,-13.78013 -43.94747,0 5.57205,-24.9532 37.06899,-24.9532 43.94747,0 z"
         id="path741"
         sodipodi:nodetypes="ccc" />
      <rect
         style="font-size:12px;fill:#004b73;fill-opacity:1;fill-rule:evenodd;stroke-width:1"
         id="rect672"
         width="59.410912"
         height="18.577206"
         x="488.59268"
         y="554.47906" />
      <text
         xml:space="preserve"
         style="font-style:normal;font-variant:normal;font-weight:normal;font-stretch:condensed;font-size:28px;line-height:0%;font-family:Impact;writing-mode:lr-tb;text-anchor:start;fill:#004b73;fill-opacity:1;stroke:none;stroke-width:1px;stroke-linecap:butt;stroke-linejoin:miter;stroke-opacity:1"
         id="text1368"><textPath
           xlink:href="#path1366"
           id="textPath1372"><tspan
   id="tspan1370"
   style="font-style:normal;font-variant:normal;font-weight:normal;font-stretch:condensed;font-size:28px;line-height:100%;font-family:Impact;writing-mode:lr-tb;text-anchor:start;fill:#004b73;fill-opacity:1">I thought what I'd do was, I'd pretend I was one of those deaf-mutes</tspan></textPath></text>
      <rect
         style="font-size:12px;fill:#fdfdfd;fill-opacity:0.99610003;fill-rule:evenodd;stroke:none;stroke-width:1;stroke-opacity:1"
         id="rect875"
         width="74.105408"
         height="31.098473"
         x="474.82928"
         y="523.64368" />
      <rect
         style="font-size:12px;fill:#004b73;fill-opacity:1;fill-rule:evenodd;stroke-width:1"
         id="rect671"
         width="258.58481"
         height="19.136181"
         x="292.55258"
         y="504.75851" />
      <rect
         style="font-size:12px;fill:#ffffff;fill-opacity:1;fill-rule:evenodd;stroke-width:1"
         id="rect703"
         width="23.227428"
         height="8.3341408"
         x="272.01123"
         y="523.90247" />
    </g>
  </g>
</svg>
