<?xml version="1.0" encoding="UTF-8" standalone="no"?>
<!-- Created with Inkscape (http://www.inkscape.org/) -->

<svg
   xmlns:dc="http://purl.org/dc/elements/1.1/"
   xmlns:cc="http://creativecommons.org/ns#"
   xmlns:rdf="http://www.w3.org/1999/02/22-rdf-syntax-ns#"
   xmlns:svg="http://www.w3.org/2000/svg"
   xmlns="http://www.w3.org/2000/svg"
   xmlns:sodipodi="http://sodipodi.sourceforge.net/DTD/sodipodi-0.dtd"
   xmlns:inkscape="http://www.inkscape.org/namespaces/inkscape"
   width="210mm"
   height="297mm"
   viewBox="0 0 210 297"
   version="1.1"
   id="svg862"
   inkscape:version="0.92.2 (5c3e80d, 2017-08-06)"
   sodipodi:docname="laughing_man_masked_text_path.svg">
  <title
     id="title1576">Lauhging Man Logo from Ghost In The Shell - Stand Alone Complex</title>
  <defs
     id="defs856">
    <circle
       r="143.90036"
       cy="524.72754"
       cx="359.75089"
       style="fill:none;fill-opacity:0.75;fill-rule:evenodd;stroke:none;stroke-width:1px;stroke-linecap:butt;stroke-linejoin:miter;stroke-opacity:1"
       id="path1366"
       transform="matrix(-0.290035,-0.80077,0.80077,-0.290035,72.83368,979.0889)" />
  </defs>
  <sodipodi:namedview
     id="base"
     pagecolor="#ffffff"
     bordercolor="#666666"
     borderopacity="1.0"
     inkscape:pageopacity="0.0"
     inkscape:pageshadow="2"
     inkscape:zoom="4.9273975"
     inkscape:cx="261.91498"
     inkscape:cy="944.00274"
     inkscape:document-units="mm"
     inkscape:current-layer="layer1"
     showgrid="false"
     inkscape:window-width="1858"
     inkscape:window-height="1057"
     inkscape:window-x="1912"
     inkscape:window-y="79"
     inkscape:window-maximized="1" />
  <metadata
     id="metadata859">
    <rdf:RDF>
      <cc:Work
         rdf:about="">
        <dc:format>image/svg+xml</dc:format>
        <dc:type
           rdf:resource="http://purl.org/dc/dcmitype/StillImage" />
        <dc:title>Lauhging Man Logo from Ghost In The Shell - Stand Alone Complex</dc:title>
        <cc:license
           rdf:resource="http://creativecommons.org/licenses/by-nc-sa/4.0/" />
        <dc:date>2006-07-07</dc:date>
        <dc:creator>
          <cc:Agent>
            <dc:title>Paul Nicholson</dc:title>
          </cc:Agent>
        </dc:creator>
        <dc:description>I (Weird Constructor) traced the SVG back in 2006 directly from the Anime. It was a long time online on one of a friends website. I decided to upload it to Github 2018.

The rights of the original logo and it's copyrights belong to the original creator and anime studio. However, there are lots of people who don't care....</dc:description>
      </cc:Work>
      <cc:License
         rdf:about="http://creativecommons.org/licenses/by-nc-sa/4.0/">
        <cc:permits
           rdf:resource="http://creativecommons.org/ns#Reproduction" />
        <cc:permits
           rdf:resource="http://creativecommons.org/ns#Distribution" />
        <cc:requires
           rdf:resource="http://creativecommons.org/ns#Notice" />
        <cc:requires
           rdf:resource="http://creativecommons.org/ns#Attribution" />
        <cc:prohibits
           rdf:resource="http://creativecommons.org/ns#CommercialUse" />
        <cc:permits
           rdf:resource="http://creativecommons.org/ns#DerivativeWorks" />
        <cc:requires
           rdf:resource="http://creativecommons.org/ns#ShareAlike" />
      </cc:License>
    </rdf:RDF>
  </metadata>
  <g
     inkscape:label="Layer 1"
     inkscape:groupmode="layer"
     id="layer1">
    <g
       id="text1368"
       style="font-style:normal;font-variant:normal;font-weight:normal;font-stretch:condensed;font-size:28px;line-height:0%;font-family:Impact;writing-mode:lr-tb;text-anchor:start;fill:#004b73;fill-opacity:1;stroke:none;stroke-width:1px;stroke-linecap:butt;stroke-linejoin:miter;stroke-opacity:1"
       aria-label="I thought what I'd do was, I'd pretend I was one of those deaf-mutes"
       transform="matrix(0.26458333,0,0,0.26458333,-49.986542,-90.491757)">
      <path
         inkscape:connector-curvature="0"
         id="path832"
         style="font-style:normal;font-variant:normal;font-weight:normal;font-stretch:condensed;font-size:28px;line-height:100%;font-family:Impact;writing-mode:lr-tb;text-anchor:start;fill:#004b73;fill-opacity:1"
         d="m 346.62873,400.34349 6.85847,21.04541 -5.47258,1.78345 -6.85848,-21.0454 z" />
      <path
         inkscape:connector-curvature="0"
         id="path834"
         style="font-style:normal;font-variant:normal;font-weight:normal;font-stretch:condensed;font-size:28px;line-height:100%;font-family:Impact;writing-mode:lr-tb;text-anchor:start;fill:#004b73;fill-opacity:1"
         d="m 361.7957,398.209 0.58932,2.79599 1.45819,-0.30734 0.59214,2.80937 -1.4582,0.30734 2.00198,9.49835 q 0.36938,1.75251 0.58559,1.91652 0.22959,0.16119 1.554,-0.11796 l 0.60342,2.86289 -2.18061,0.45961 q -1.84615,0.38911 -2.66647,0.40832 -0.82314,0.006 -1.54075,-0.41579 -0.72043,-0.43498 -1.01704,-1.113 -0.29942,-0.69139 -0.85772,-3.34023 l -1.90047,-9.01673 -1.16388,0.24531 -0.59213,-2.80937 1.16388,-0.24531 -0.58932,-2.79599 z" />
      <path
         inkscape:connector-curvature="0"
         id="path836"
         style="font-style:normal;font-variant:normal;font-weight:normal;font-stretch:condensed;font-size:28px;line-height:100%;font-family:Impact;writing-mode:lr-tb;text-anchor:start;fill:#004b73;fill-opacity:1"
         d="m 371.68443,395.10206 0.55978,4.94498 q 0.63261,-0.73205 1.41081,-1.15037 0.79178,-0.41985 1.72915,-0.52596 1.44002,-0.16301 2.52836,0.45678 1.10193,0.61826 1.42848,1.5582 0.3386,0.92481 0.62618,3.46522 l 1.40713,12.43038 -5.48838,0.62129 -1.43636,-12.68849 q -0.17839,-1.57587 -0.39216,-2.00573 -0.20018,-0.43139 -0.74359,-0.36987 -0.50265,0.0569 -0.62697,0.53878 -0.12432,0.48189 0.031,1.85398 l 1.45634,12.8651 -5.48838,0.62129 -2.48978,-21.99429 z" />
      <path
         inkscape:connector-curvature="0"
         id="path838"
         style="font-style:normal;font-variant:normal;font-weight:normal;font-stretch:condensed;font-size:28px;line-height:100%;font-family:Impact;writing-mode:lr-tb;text-anchor:start;fill:#004b73;fill-opacity:1"
         d="m 395.84414,404.50366 -0.0285,4.44326 q -0.0157,2.44722 -0.26913,3.59406 -0.25337,1.13316 -1.06639,2.12602 -0.81293,0.97918 -2.08745,1.44954 -1.26077,0.45677 -2.90136,0.44626 -1.83199,-0.0117 -3.10091,-0.41637 -1.26883,-0.41829 -1.97458,-1.22947 -0.692,-0.82477 -0.98541,-1.97511 -0.29333,-1.16401 -0.27852,-3.47451 l 0.0298,-4.64834 q 0.0162,-2.52925 0.57218,-3.94759 0.55598,-1.41834 1.98334,-2.27054 1.42737,-0.8522 3.64217,-0.838 1.85933,0.0119 3.18189,0.58095 1.33631,0.55545 2.05521,1.44875 0.7189,0.89329 0.97261,1.8383 0.26739,0.94509 0.25503,2.87279 z m -5.51456,-1.40256 q 0.009,-1.3945 -0.13917,-1.75093 -0.14802,-0.3701 -0.6402,-0.37325 -0.49218,-0.003 -0.6586,0.36493 -0.16634,0.35441 -0.17528,1.74891 l -0.0525,8.18928 q -0.008,1.28513 0.15328,1.68266 0.16161,0.38386 0.64011,0.38692 0.49218,0.003 0.64485,-0.35134 0.16633,-0.35441 0.17387,-1.53017 z" />
      <path
         inkscape:connector-curvature="0"
         id="path840"
         style="font-style:normal;font-variant:normal;font-weight:normal;font-stretch:condensed;font-size:28px;line-height:100%;font-family:Impact;writing-mode:lr-tb;text-anchor:start;fill:#004b73;fill-opacity:1"
         d="m 412.42539,399.97588 -2.2675,18.00032 -5.57508,-0.70229 0.28291,-1.48016 q -0.6842,0.83707 -1.5833,1.19233 -0.88384,0.3434 -1.96901,0.2067 -1.23439,-0.1555 -1.99359,-0.69209 -0.7592,-0.5366 -1.06201,-1.30508 -0.28925,-0.76677 -0.2868,-1.55192 0.004,-0.79871 0.29635,-3.11827 l 1.52932,-12.14038 5.48013,0.69033 -1.543,12.2489 q -0.26485,2.10252 -0.19232,2.51128 0.0861,0.41046 0.65581,0.48223 0.61041,0.0769 0.77019,-0.31638 0.17334,-0.39156 0.45187,-2.6026 l 1.5259,-12.11326 z" />
      <path
         inkscape:connector-curvature="0"
         id="path842"
         style="font-style:normal;font-variant:normal;font-weight:normal;font-stretch:condensed;font-size:28px;line-height:100%;font-family:Impact;writing-mode:lr-tb;text-anchor:start;fill:#004b73;fill-opacity:1"
         d="m 428.71647,403.78602 -3.38289,13.55696 q -0.68519,2.74588 -1.01975,3.52196 -0.31799,0.76611 -1.30915,1.46289 -0.99446,0.71005 -2.48988,0.83008 -1.48548,0.13661 -3.5681,-0.38307 -2.56017,-0.63885 -3.89373,-1.90162 -1.33686,-1.24952 -0.75439,-3.80966 l 5.19993,1.29755 q -0.29128,1.16733 0.55768,1.37917 0.6102,0.15227 0.89855,-0.15624 0.28835,-0.30851 0.57301,-1.44931 l 0.33101,-1.32651 q -0.84536,0.45133 -1.69418,0.57771 -0.83555,0.12969 -1.67126,-0.0788 -1.44589,-0.3608 -2.24207,-1.17948 -0.78292,-0.81537 -0.8928,-1.84326 -0.10657,-1.04115 0.33036,-2.79214 l 1.59546,-6.3938 q 0.6256,-2.5071 1.80236,-3.38302 1.17677,-0.87593 3.02062,-0.41583 1.00815,0.25157 1.72798,0.86801 0.73309,0.61976 1.17785,1.60439 l 0.7157,-1.23052 z m -6.53752,3.32875 q 0.30121,-1.20713 0.23805,-1.57517 -0.0499,-0.36473 -0.52745,-0.48389 -0.46428,-0.11585 -0.75924,0.21919 -0.2784,0.32508 -0.55644,1.43935 l -1.4763,5.91625 q -0.29459,1.18059 -0.23805,1.57516 0.0599,0.38131 0.52414,0.49716 0.5306,0.1324 0.79571,-0.25236 0.2651,-0.38476 0.63914,-1.88372 z" />
      <path
         inkscape:connector-curvature="0"
         id="path844"
         style="font-style:normal;font-variant:normal;font-weight:normal;font-stretch:condensed;font-size:28px;line-height:100%;font-family:Impact;writing-mode:lr-tb;text-anchor:start;fill:#004b73;fill-opacity:1"
         d="m 439.27025,403.25811 -1.76812,4.65187 q 0.89771,-0.36084 1.78108,-0.37611 0.89615,-0.0104 1.77796,0.32475 1.35467,0.51489 2.03808,1.56446 0.69619,1.05442 0.55578,2.03951 -0.12276,0.97717 -1.03111,3.36701 l -4.44458,11.69358 -5.16307,-1.96242 4.53687,-11.9364 q 0.56347,-1.48246 0.57041,-1.96249 0.0197,-0.47517 -0.49148,-0.66947 -0.47285,-0.17972 -0.80415,0.19165 -0.33129,0.37136 -0.82189,1.66213 l -4.60003,12.10254 -5.16306,-1.96242 7.86424,-20.69061 z" />
      <path
         inkscape:connector-curvature="0"
         id="path846"
         style="font-style:normal;font-variant:normal;font-weight:normal;font-stretch:condensed;font-size:28px;line-height:100%;font-family:Impact;writing-mode:lr-tb;text-anchor:start;fill:#004b73;fill-opacity:1"
         d="m 454.16052,411.53526 -1.26153,2.56386 1.33713,0.65793 -1.26756,2.57613 -1.33714,-0.65793 -4.28559,8.70977 q -0.79072,1.60702 -0.72179,1.8695 0.0812,0.26851 1.29567,0.86608 l -1.29172,2.6252 -1.99956,-0.98388 q -1.69289,-0.83297 -2.35026,-1.32404 -0.65134,-0.50333 -0.95589,-1.27791 -0.29852,-0.78685 -0.11355,-1.50341 0.19101,-0.72883 1.38615,-3.15775 l 4.06829,-8.26816 -1.06726,-0.52513 1.26757,-2.57613 1.06726,0.52513 1.26153,-2.56386 z" />
      <path
         inkscape:connector-curvature="0"
         id="path848"
         style="font-style:normal;font-variant:normal;font-weight:normal;font-stretch:condensed;font-size:28px;line-height:100%;font-family:Impact;writing-mode:lr-tb;text-anchor:start;fill:#004b73;fill-opacity:1"
         d="m 476.89858,428.78721 -12.17086,13.63335 -4.9262,-3.42871 q 1.49392,-3.00797 4.06719,-7.82995 -1.53853,1.82756 -3.25417,3.59847 l -2.75432,2.88031 -4.9262,-3.42871 8.44536,-16.22636 3.90505,2.71797 q -0.36125,0.61476 -4.94051,9.20435 0.62967,-0.76108 6.93792,-7.81412 l 3.75917,2.61644 -5.00783,9.15749 q 2.80621,-3.57712 6.96036,-7.79851 z" />
      <path
         inkscape:connector-curvature="0"
         id="path850"
         style="font-style:normal;font-variant:normal;font-weight:normal;font-stretch:condensed;font-size:28px;line-height:100%;font-family:Impact;writing-mode:lr-tb;text-anchor:start;fill:#004b73;fill-opacity:1"
         d="m 486.19509,431.89136 -3.37165,3.66035 q 0.96752,-0.001 1.79318,0.31341 0.83572,0.32369 1.52958,0.96282 1.06592,0.98185 1.30987,2.21032 0.254,1.23772 -0.24276,2.0999 -0.47745,0.86138 -2.20959,2.74183 l -8.47543,9.20115 -4.06259,-3.74216 8.65143,-9.39221 q 1.07449,-1.16649 1.25949,-1.60949 0.19505,-0.43373 -0.20718,-0.80424 -0.37207,-0.34273 -0.81773,-0.12124 -0.44566,0.22148 -1.3812,1.23713 l -8.77185,9.52294 -4.06259,-3.74216 14.99644,-16.28051 z" />
      <path
         inkscape:connector-curvature="0"
         id="path852"
         style="font-style:normal;font-variant:normal;font-weight:normal;font-stretch:condensed;font-size:28px;line-height:100%;font-family:Impact;writing-mode:lr-tb;text-anchor:start;fill:#004b73;fill-opacity:1"
         d="m 489.48505,450.97834 -3.37147,-3.93478 0.924,-0.79172 q 1.59883,-1.36995 2.77188,-1.74492 1.19234,-0.37349 2.80863,0.16806 1.61629,0.54155 3.13746,2.31688 1.82362,2.12831 1.99089,3.85743 0.17765,1.72022 -0.73603,2.88119 -0.9033,1.15207 -4.31899,4.07876 l -6.91442,5.92456 -3.49602,-4.08014 1.22508,-1.04969 q -1.06627,0.24746 -1.96487,-0.0448 -0.87932,-0.29081 -1.59987,-1.13175 -0.94295,-1.1005 -1.12213,-2.54934 -0.1599,-1.44737 1.92688,-3.23541 l 1.13164,-0.96963 q 1.54692,-1.32546 2.52565,-1.31788 0.97873,0.008 3.38084,1.29815 2.58005,1.37216 2.9849,1.27732 0.40485,-0.0948 1.26656,-0.83318 1.07973,-0.92516 1.25924,-1.36704 0.19879,-0.44039 -0.12145,-0.81414 -0.36473,-0.42566 -0.734,-0.2893 -0.35889,0.12747 -1.51129,1.11489 z m -0.75087,2.94792 q -1.60001,-0.37546 -2.24068,-0.11458 -0.63177,0.27127 -1.56615,1.07188 -1.06935,0.91626 -1.26516,1.3181 -0.18692,0.41222 0.1689,0.8275 0.33804,0.39452 0.67468,0.30412 0.35592,-0.0889 1.39412,-0.97849 z" />
      <path
         inkscape:connector-curvature="0"
         id="path854"
         style="font-style:normal;font-variant:normal;font-weight:normal;font-stretch:condensed;font-size:28px;line-height:100%;font-family:Impact;writing-mode:lr-tb;text-anchor:start;fill:#004b73;fill-opacity:1"
         d="m 506.99656,458.20507 -2.33324,1.64949 0.86026,1.21686 -2.34441,1.65739 -0.86026,-1.21686 -7.92634,5.60354 q -1.46246,1.03389 -1.52732,1.2974 -0.057,0.27468 0.72437,1.3799 l -2.38906,1.68896 -1.28645,-1.81971 q -1.08914,-1.54061 -1.43198,-2.2861 -0.33168,-0.75337 -0.22912,-1.57933 0.11373,-0.83385 0.6186,-1.37494 0.51603,-0.54899 2.72648,-2.11167 l 7.52443,-5.31941 -0.68663,-0.97126 2.34441,-1.65738 0.68663,0.97125 2.33325,-1.64949 z" />
      <path
         inkscape:connector-curvature="0"
         id="path856"
         style="font-style:normal;font-variant:normal;font-weight:normal;font-stretch:condensed;font-size:28px;line-height:100%;font-family:Impact;writing-mode:lr-tb;text-anchor:start;fill:#004b73;fill-opacity:1"
         d="m 516.51564,470.95357 -19.35267,10.74346 -2.7937,-5.03242 19.35267,-10.74345 z" />
      <path
         inkscape:connector-curvature="0"
         id="path858"
         style="font-style:normal;font-variant:normal;font-weight:normal;font-stretch:condensed;font-size:28px;line-height:100%;font-family:Impact;writing-mode:lr-tb;text-anchor:start;fill:#004b73;fill-opacity:1"
         d="m 511.73852,477.28671 3.03981,-2.28376 3.04928,-1.48264 1.82939,3.76242 -3.04928,1.48264 -3.63168,1.0665 z" />
      <path
         inkscape:connector-curvature="0"
         id="path860"
         style="font-style:normal;font-variant:normal;font-weight:normal;font-stretch:condensed;font-size:28px;line-height:100%;font-family:Impact;writing-mode:lr-tb;text-anchor:start;fill:#004b73;fill-opacity:1"
         d="m 525.69888,491.91499 -20.61399,8.06295 -2.012,-5.14395 1.22232,-0.4781 q -1.0528,-0.43968 -1.75351,-1.10515 -0.70071,-0.66548 -1.04933,-1.55676 -0.46814,-1.19686 -0.18788,-2.31943 0.293,-1.12756 1.02101,-1.70592 0.73299,-0.56563 2.60467,-1.29772 l 7.90691,-3.09271 q 1.94808,-0.76197 2.85759,-0.83879 0.91449,-0.0641 1.87426,0.58815 0.97251,0.64725 1.45559,1.8823 0.37352,0.95494 0.33851,1.87883 -0.03,0.93661 -0.46359,1.8549 l 4.78744,-1.87255 z m -9.98258,-2.02634 q 0.92948,-0.36356 1.18305,-0.65359 0.25855,-0.27729 0.0743,-0.7484 -0.17928,-0.45837 -0.53687,-0.50935 -0.33988,-0.0432 -1.33302,0.34523 l -8.27616,3.23714 q -1.03133,0.40339 -1.30262,0.68567 -0.25855,0.27729 -0.0892,0.7102 0.19423,0.49657 0.61548,0.52265 0.43399,0.0211 1.8473,-0.53171 z" />
      <path
         inkscape:connector-curvature="0"
         id="path862"
         style="font-style:normal;font-variant:normal;font-weight:normal;font-stretch:condensed;font-size:28px;line-height:100%;font-family:Impact;writing-mode:lr-tb;text-anchor:start;fill:#004b73;fill-opacity:1"
         d="m 531.40903,514.1408 -21.62239,4.73497 -1.18155,-5.39559 1.28212,-0.28076 q -0.97095,-0.59914 -1.55879,-1.36614 -0.58784,-0.76701 -0.79256,-1.70189 -0.27492,-1.2554 0.1777,-2.32023 0.46597,-1.06776 1.27558,-1.52497 0.81253,-0.44385 2.77577,-0.87377 l 8.29371,-1.81619 q 2.04338,-0.44747 2.95369,-0.38089 0.91324,0.0799 1.75902,0.87443 0.85914,0.79157 1.14283,2.08704 0.21934,1.00166 0.0401,1.90866 -0.17634,0.92035 -0.74838,1.75941 l 5.02164,-1.09966 z m -9.54203,-3.56477 q 0.97495,-0.2135 1.27081,-0.46023 0.29879,-0.23338 0.19058,-0.72753 -0.10528,-0.4808 -0.45048,-0.58715 -0.32891,-0.0959 -1.37063,0.1322 l -8.68102,1.901 q -1.08178,0.2369 -1.39393,0.4732 -0.29879,0.23338 -0.19935,0.68747 0.11406,0.52086 0.52603,0.61259 0.42533,0.0888 1.90778,-0.23583 z" />
      <path
         inkscape:connector-curvature="0"
         id="path864"
         style="font-style:normal;font-variant:normal;font-weight:normal;font-stretch:condensed;font-size:28px;line-height:100%;font-family:Impact;writing-mode:lr-tb;text-anchor:start;fill:#004b73;fill-opacity:1"
         d="m 523.02336,532.14102 -4.42234,0.43167 q -2.43569,0.23776 -3.6026,0.1044 -1.15331,-0.13469 -2.225,-0.84055 -1.05809,-0.7072 -1.65786,-1.92618 -0.58484,-1.2067 -0.74423,-2.83957 -0.17798,-1.82336 0.0931,-3.12735 0.28469,-1.30532 1.01845,-2.09126 0.74869,-0.77366 1.86247,-1.18459 1.1274,-0.41226 3.42701,-0.63673 l 4.62645,-0.45159 q 2.51733,-0.24573 3.98561,0.16043 1.46828,0.40615 2.46367,1.73762 0.99539,1.33147 1.21056,3.53584 0.18064,1.85058 -0.24842,3.22493 -0.41412,1.38664 -1.22819,2.19416 -0.81407,0.80751 -1.72773,1.1577 -0.91234,0.36379 -2.83095,0.55107 z m 0.82412,-5.63013 q 1.38793,-0.13548 1.72711,-0.3197 0.35278,-0.18554 0.30496,-0.6754 -0.0478,-0.48986 -0.43114,-0.61728 -0.36973,-0.12875 -1.75767,0.007 l -8.15071,0.7956 q -1.27908,0.12486 -1.65775,0.32666 -0.36506,0.20048 -0.31857,0.67673 0.0478,0.48986 0.41621,0.60501 0.36973,0.12875 1.53995,0.0145 z" />
      <path
         inkscape:connector-curvature="0"
         id="path866"
         style="font-style:normal;font-variant:normal;font-weight:normal;font-stretch:condensed;font-size:28px;line-height:100%;font-family:Impact;writing-mode:lr-tb;text-anchor:start;fill:#004b73;fill-opacity:1"
         d="m 528.22834,559.28485 -17.91207,-3.62712 0.47401,-5.98321 q 3.35076,-0.22827 8.81229,-0.44018 -2.3542,-0.40594 -4.74888,-0.99338 l -3.87662,-0.92428 0.47401,-5.98321 18.27055,-0.89777 -0.37575,4.74296 q -0.71304,-0.002 -10.43956,0.37984 0.97482,0.15951 10.24736,2.04615 l -0.36171,4.56577 -10.43308,0.29807 q 4.50437,0.61743 10.2452,2.07341 z" />
      <path
         inkscape:connector-curvature="0"
         id="path868"
         style="font-style:normal;font-variant:normal;font-weight:normal;font-stretch:condensed;font-size:28px;line-height:100%;font-family:Impact;writing-mode:lr-tb;text-anchor:start;fill:#004b73;fill-opacity:1"
         d="m 519.59687,565.92593 1.09781,-5.06401 1.18917,0.25779 q 2.05768,0.44608 3.0653,1.15415 1.01809,0.72433 1.56329,2.33939 0.5452,1.61507 0.0499,3.89988 -0.5938,2.73911 -1.87044,3.91726 -1.26327,1.18104 -2.74042,1.15459 -1.46379,-0.0236 -5.85972,-0.97653 l -8.89877,-1.92913 1.13837,-5.25108 1.57665,0.3418 q -0.84149,-0.70003 -1.1516,-1.59264 -0.29965,-0.87635 -0.065,-1.95863 0.30704,-1.41632 1.35317,-2.43459 1.05659,-1.00202 3.74225,-0.4198 l 1.4564,0.31573 q 1.99087,0.43159 2.57625,1.216 0.58538,0.7844 1.00864,3.4782 0.46578,2.88487 0.78599,3.15014 0.3202,0.26527 1.42921,0.50569 1.3896,0.30125 1.85015,0.17726 0.47102,-0.10774 0.57529,-0.58875 0.11876,-0.54782 -0.21303,-0.75965 -0.31843,-0.20892 -1.80156,-0.53044 z m -2.80256,1.18309 q -0.6677,-1.50172 -1.2627,-1.85454 -0.59791,-0.33946 -1.80044,-0.60016 -1.37624,-0.29835 -1.81474,-0.21155 -0.4414,0.10017 -0.55726,0.63463 -0.11007,0.50773 0.16538,0.72133 0.28592,0.22986 1.62207,0.51952 z" />
      <path
         inkscape:connector-curvature="0"
         id="path870"
         style="font-style:normal;font-variant:normal;font-weight:normal;font-stretch:condensed;font-size:28px;line-height:100%;font-family:Impact;writing-mode:lr-tb;text-anchor:start;fill:#004b73;fill-opacity:1"
         d="m 514.76055,587.14107 1.56064,-4.63906 0.93299,0.31388 q 1.19216,0.40105 1.55111,0.36313 0.36755,-0.0206 0.55064,-0.56484 0.14822,-0.44058 -0.0757,-0.76114 -0.21097,-0.31619 -0.7941,-0.51236 -0.79045,-0.26592 -1.20111,-0.28867 -0.40207,-0.005 -1.02574,0.39059 -0.62803,0.40899 -2.04575,1.83612 -1.88165,1.90576 -3.10624,2.28716 -1.22459,0.38139 -3.10354,-0.25071 -2.09923,-0.70621 -2.99168,-1.61228 -0.87949,-0.90171 -1.03104,-2.38074 -0.14295,-1.46172 0.463,-3.26292 0.67133,-1.99557 1.77285,-3.21174 1.09716,-1.2032 2.33847,-1.37702 1.24131,-0.17383 3.39238,0.54981 l 0.82933,0.279 -1.56063,4.63906 -1.0885,-0.36618 q -1.38653,-0.46645 -1.85787,-0.43749 -0.47569,0.0419 -0.65006,0.56025 -0.18745,0.5572 0.0106,0.86904 0.21098,0.3162 1.1051,0.61699 1.23103,0.41413 1.63793,0.23367 0.41127,-0.19341 2.86452,-2.42617 2.07178,-1.87064 3.29141,-2.0229 1.23259,-0.14791 2.68392,0.34033 2.06036,0.69313 2.84914,1.56432 0.80174,0.87556 0.89709,2.35012 0.091,1.48751 -0.48878,3.21096 -0.57543,1.71049 -1.41707,2.75444 -0.83304,1.06126 -1.75935,1.45645 -0.93067,0.40815 -1.5833,0.33285 -0.65699,-0.0623 -1.95282,-0.49828 z" />
      <path
         inkscape:connector-curvature="0"
         id="path872"
         style="font-style:normal;font-variant:normal;font-weight:normal;font-stretch:condensed;font-size:28px;line-height:100%;font-family:Impact;writing-mode:lr-tb;text-anchor:start;fill:#004b73;fill-opacity:1"
         d="m 504.99531,589.56895 -1.82817,-0.76668 q -1.43732,-0.60277 -2.21495,-1.32917 -0.77762,-0.7264 -1.06638,-1.8408 -0.29404,-1.10179 -0.0642,-2.25075 l 1.46253,0.61334 q 0.11143,0.93626 0.78779,1.3385 l 0.35955,-0.85734 3.99675,1.67611 z" />
      <path
         inkscape:connector-curvature="0"
         id="path874"
         style="font-style:normal;font-variant:normal;font-weight:normal;font-stretch:condensed;font-size:28px;line-height:100%;font-family:Impact;writing-mode:lr-tb;text-anchor:start;fill:#004b73;fill-opacity:1"
         d="m 515.06142,609.33312 -19.54173,-10.3956 2.70324,-5.08158 19.54174,10.39561 z" />
      <path
         inkscape:connector-curvature="0"
         id="path876"
         style="font-style:normal;font-variant:normal;font-weight:normal;font-stretch:condensed;font-size:28px;line-height:100%;font-family:Impact;writing-mode:lr-tb;text-anchor:start;fill:#004b73;fill-opacity:1"
         d="m 507.15167,608.76596 3.57021,1.30753 2.90325,1.75142 -2.16103,3.58223 -2.90325,-1.75142 -2.87105,-2.46648 z" />
      <path
         inkscape:connector-curvature="0"
         id="path878"
         style="font-style:normal;font-variant:normal;font-weight:normal;font-stretch:condensed;font-size:28px;line-height:100%;font-family:Impact;writing-mode:lr-tb;text-anchor:start;fill:#004b73;fill-opacity:1"
         d="m 502.46553,628.44555 -17.97523,-12.91661 3.22317,-4.48549 1.06585,0.76591 q -0.20342,-1.12265 -0.0259,-2.07256 0.17752,-0.94992 0.73599,-1.72711 0.74994,-1.04365 1.84447,-1.4188 1.10562,-0.36718 1.98686,-0.0707 0.87326,0.30762 2.50535,1.48041 l 6.89476,4.95443 q 1.69871,1.22065 2.2577,1.9422 0.55101,0.73266 0.52546,1.8928 -0.0144,1.16811 -0.78831,2.24507 -0.59836,0.8327 -1.39278,1.30566 -0.8024,0.48406 -1.80883,0.61948 l 4.17461,2.99978 z m -3.72711,-9.4798 q 0.8105,0.5824 1.19178,0.63752 0.37331,0.0662 0.6685,-0.34457 0.28721,-0.3997 0.13557,-0.72753 -0.14853,-0.30875 -1.01453,-0.93105 l -7.21674,-5.18579 q -0.89932,-0.64623 -1.28373,-0.72043 -0.3733,-0.0662 -0.64456,0.31127 -0.31115,0.433 -0.10399,0.80073 0.21826,0.3757 1.45066,1.26127 z" />
      <path
         inkscape:connector-curvature="0"
         id="path880"
         style="font-style:normal;font-variant:normal;font-weight:normal;font-stretch:condensed;font-size:28px;line-height:100%;font-family:Impact;writing-mode:lr-tb;text-anchor:start;fill:#004b73;fill-opacity:1"
         d="m 488.92894,637.58794 -1.06733,-1.19529 q 0.16829,1.20789 -0.11858,2.17558 -0.28687,0.96768 -1.02883,1.7145 -0.90577,0.91171 -2.05566,1.07981 -1.14983,0.18743 -1.95377,-0.28366 -0.80394,-0.47108 -2.33637,-1.99355 l -5.42172,-5.38646 q -1.75551,-1.7441 -2.29034,-2.69944 -0.53477,-0.93601 -0.33532,-2.02909 0.19952,-1.07374 1.10529,-1.98545 0.72269,-0.72742 1.67885,-1.0109 0.95616,-0.28347 2.13609,-0.13264 l -2.94848,-2.92931 3.8929,-3.91838 14.70362,14.60801 z m -4.85193,-2.60407 q 1.19298,1.18521 1.53187,1.34845 0.3389,0.16324 0.73397,-0.23441 0.38544,-0.38796 0.2101,-0.79343 -0.18498,-0.39576 -1.30036,-1.50389 l -5.33442,-5.29974 q -1.16388,-1.1563 -1.57048,-1.32899 -0.4066,-0.17269 -0.79203,0.21527 -0.3758,0.37826 -0.20066,0.72572 0.17522,0.36679 1.20331,1.38819 z" />
      <path
         inkscape:connector-curvature="0"
         id="path882"
         style="font-style:normal;font-variant:normal;font-weight:normal;font-stretch:condensed;font-size:28px;line-height:100%;font-family:Impact;writing-mode:lr-tb;text-anchor:start;fill:#004b73;fill-opacity:1"
         d="m 476.86606,648.50785 -1.34132,-1.97683 q 0.69363,2.73912 -0.9749,4.30488 l -4.0536,-4.93291 q 1.17249,-0.96348 1.46136,-1.73174 0.28888,-0.76825 -0.0531,-1.44281 -0.33329,-0.664 -2.00855,-2.70265 l -4.54836,-5.535 4.26745,-3.50675 11.51846,14.01706 z" />
      <path
         inkscape:connector-curvature="0"
         id="path884"
         style="font-style:normal;font-variant:normal;font-weight:normal;font-stretch:condensed;font-size:28px;line-height:100%;font-family:Impact;writing-mode:lr-tb;text-anchor:start;fill:#004b73;fill-opacity:1"
         d="m 456.32267,651.57018 5.95019,-3.96527 -2.17597,-3.26521 q -0.68236,-1.02393 -1.02739,-1.22117 -0.34503,-0.19724 -0.76598,0.0833 -0.52334,0.34877 -0.43622,0.84931 0.0833,0.51951 0.83393,1.64583 l 1.32681,1.99098 -4.3574,2.90382 -0.74302,-1.11495 q -0.93256,-1.39937 -1.25092,-2.27156 -0.32974,-0.86461 -0.24988,-2.15005 0.0798,-1.28544 0.79292,-2.38497 0.70928,-1.08056 2.21105,-2.08135 1.45626,-0.97047 2.85173,-1.29254 1.39548,-0.32206 2.50645,-0.0109 1.10717,0.33009 1.92989,1.04691 0.83029,0.72819 1.9524,2.41199 l 2.93414,4.40291 q 1.31923,1.9796 1.54269,3.47365 0.23104,1.50542 -0.58447,2.91966 -0.80792,1.42561 -2.38933,2.47947 -1.9341,1.28891 -3.67839,1.38339 -1.74808,0.11345 -3.05992,-0.77029 -1.31563,-0.86479 -2.77892,-3.06056 z m 6.24536,-0.61318 0.73543,1.10357 q 0.78093,1.17183 1.13353,1.42974 0.3526,0.25792 0.73942,1.3e-4 0.47783,-0.31843 0.39448,-0.69005 -0.0758,-0.36024 -0.92494,-1.63447 l -0.73543,-1.10357 z" />
      <path
         inkscape:connector-curvature="0"
         id="path886"
         style="font-style:normal;font-variant:normal;font-weight:normal;font-stretch:condensed;font-size:28px;line-height:100%;font-family:Impact;writing-mode:lr-tb;text-anchor:start;fill:#004b73;fill-opacity:1"
         d="m 454.45692,665.9705 -1.35517,-2.51563 -1.31198,0.70676 -1.36164,-2.52766 1.31197,-0.70676 -4.60367,-8.54592 q -0.84941,-1.57678 -1.10314,-1.67304 -0.26577,-0.0898 -1.45739,0.55215 l -1.38758,-2.57581 1.96195,-1.0569 q 1.66104,-0.89479 2.44251,-1.14495 0.78797,-0.23812 1.59546,-0.0364 0.81397,0.21375 1.29002,0.78036 0.48254,0.57865 1.76638,2.96188 l 4.37025,8.1126 1.04717,-0.56411 1.36165,2.52766 -1.04717,0.56412 1.35516,2.51562 z" />
      <path
         inkscape:connector-curvature="0"
         id="path888"
         style="font-style:normal;font-variant:normal;font-weight:normal;font-stretch:condensed;font-size:28px;line-height:100%;font-family:Impact;writing-mode:lr-tb;text-anchor:start;fill:#004b73;fill-opacity:1"
         d="m 434.23442,662.1339 6.58225,-2.79322 -1.5328,-3.61206 q -0.48067,-1.1327 -0.78314,-1.3905 -0.30247,-0.25779 -0.76814,-0.0602 -0.57893,0.24567 -0.58613,0.75369 -0.0144,0.52595 0.51429,1.77192 l 0.93464,2.20248 -4.82027,2.04551 -0.5234,-1.23339 q -0.65691,-1.54802 -0.80803,-2.46412 -0.16371,-0.91076 0.15311,-2.1591 0.31682,-1.24834 1.2214,-2.19658 0.89733,-0.93031 2.55863,-1.63529 1.61095,-0.68362 3.04194,-0.74135 1.431,-0.0577 2.46501,0.454 1.02677,0.52966 1.70231,1.3866 0.68087,0.86951 1.47131,2.73218 l 2.06687,4.87061 q 0.9293,2.18989 0.87185,3.69946 -0.0521,1.52216 -1.1157,2.76065 -1.05825,1.25109 -2.80764,1.99345 -2.13955,0.90793 -3.87111,0.67736 -1.73881,-0.21265 -2.86403,-1.32432 -1.13247,-1.09373 -2.16324,-3.52274 z m 6.25076,0.55547 0.51806,1.2208 q 0.55009,1.29631 0.84876,1.61513 0.29866,0.31882 0.72657,0.13723 0.5286,-0.22431 0.51559,-0.60494 -0.008,-0.36805 -0.60583,-1.77763 l -0.51805,-1.2208 z" />
      <path
         inkscape:connector-curvature="0"
         id="path890"
         style="font-style:normal;font-variant:normal;font-weight:normal;font-stretch:condensed;font-size:28px;line-height:100%;font-family:Impact;writing-mode:lr-tb;text-anchor:start;fill:#004b73;fill-opacity:1"
         d="m 428.79415,673.68699 -0.37664,-1.6277 q -0.29702,1.12683 -0.98543,1.84113 -0.69769,0.73127 -1.78677,1.05 -1.36463,0.39938 -2.41882,0.01 -1.05419,-0.3895 -1.59151,-1.30065 -0.53347,-0.89802 -1.20166,-3.18116 l -3.57134,-12.20298 5.30108,-1.55143 3.5291,12.05865 q 0.5261,1.79764 0.7594,2.15673 0.23329,0.35908 0.77128,0.20163 0.56422,-0.16512 0.57415,-0.66662 0.0138,-0.48837 -0.56225,-2.45659 l -3.44462,-11.76997 5.30108,-1.55143 5.09588,17.41222 z" />
      <path
         inkscape:connector-curvature="0"
         id="path892"
         style="font-style:normal;font-variant:normal;font-weight:normal;font-stretch:condensed;font-size:28px;line-height:100%;font-family:Impact;writing-mode:lr-tb;text-anchor:start;fill:#004b73;fill-opacity:1"
         d="m 406.24316,682.60781 -3.65357,-21.83115 5.44768,-0.9117 0.21664,1.29449 q 0.64669,-0.93995 1.44199,-1.4889 0.79529,-0.54896 1.7392,-0.70693 1.26753,-0.21213 2.30852,0.29289 1.04326,0.51851 1.45963,1.34986 0.40288,0.8336 0.73462,2.8158 l 1.4014,8.37378 q 0.34527,2.06311 0.2335,2.96898 -0.12526,0.90813 -0.96085,1.71335 -0.83332,0.8187 -2.14131,1.0376 -1.01132,0.16925 -1.90828,-0.0549 -0.91045,-0.22191 -1.72001,-0.83497 l 0.84851,5.07011 z m 4.03499,-9.3529 q 0.16474,0.98436 0.39645,1.29213 0.21823,0.31003 0.71715,0.22653 0.48544,-0.0812 0.60883,-0.42072 0.11217,-0.32373 -0.0639,-1.37551 l -1.46685,-8.76483 q -0.18279,-1.09223 -0.40328,-1.41574 -0.21822,-0.31003 -0.67669,-0.2333 -0.52589,0.088 -0.638,0.49491 -0.10985,0.42038 0.14064,1.91714 z" />
      <path
         inkscape:connector-curvature="0"
         id="path894"
         style="font-style:normal;font-variant:normal;font-weight:normal;font-stretch:condensed;font-size:28px;line-height:100%;font-family:Impact;writing-mode:lr-tb;text-anchor:start;fill:#004b73;fill-opacity:1"
         d="m 390.49016,683.56364 -0.7174,-22.12313 5.75284,-0.18655 0.71739,22.12313 z" />
      <path
         inkscape:connector-curvature="0"
         id="path896"
         style="font-style:normal;font-variant:normal;font-weight:normal;font-stretch:condensed;font-size:28px;line-height:100%;font-family:Impact;writing-mode:lr-tb;text-anchor:start;fill:#004b73;fill-opacity:1"
         d="m 362.79445,677.46259 4.32514,-17.75645 5.96008,0.70773 q 0.097,3.35712 0.0951,8.82276 0.49774,-2.33651 1.17842,-4.70638 l 1.07524,-3.83748 5.96008,0.70773 0.18226,18.29168 -4.72462,-0.56102 q 0.0295,-0.71243 0.0289,-10.44643 -0.19753,0.96783 -2.4455,10.15946 l -4.54813,-0.54006 0.11035,-10.43676 q -0.79319,4.47677 -2.47266,10.15624 z" />
      <path
         inkscape:connector-curvature="0"
         id="path898"
         style="font-style:normal;font-variant:normal;font-weight:normal;font-stretch:condensed;font-size:28px;line-height:100%;font-family:Impact;writing-mode:lr-tb;text-anchor:start;fill:#004b73;fill-opacity:1"
         d="m 356.49828,668.58002 5.01747,1.29397 -0.30386,1.17825 q -0.52579,2.03876 -1.27252,3.01808 -0.76339,0.98914 -2.39844,1.4711 -1.63505,0.48196 -3.89887,-0.10187 -2.71393,-0.69991 -3.84152,-2.02141 -1.13101,-1.30826 -1.04711,-2.78327 0.0805,-1.46176 1.20374,-5.81729 l 2.27385,-8.81699 5.20282,1.34178 -0.40288,1.56217 q 0.73224,-0.81362 1.63624,-1.08878 0.88734,-0.26533 1.95967,0.0112 1.40331,0.3619 2.38011,1.44685 0.96016,1.09477 0.27391,3.75575 l -0.37215,1.44302 q -0.50871,1.97257 -1.3153,2.52699 -0.80658,0.55442 -3.51481,0.87257 -2.90081,0.3532 -3.17833,0.66284 -0.27753,0.30965 -0.56091,1.40846 -0.35507,1.37683 -0.24909,1.84186 0.0893,0.47485 0.56592,0.59776 0.54279,0.13998 0.76736,-0.18332 0.22115,-0.31007 0.60013,-1.77956 z m -1.07317,-2.84647 q 1.52656,-0.60877 1.90226,-1.1896 0.36246,-0.58424 0.66974,-1.77573 0.35166,-1.36359 0.28198,-1.80513 -0.0829,-0.44496 -0.61246,-0.58153 -0.50307,-0.12974 -0.72722,0.1372 -0.24081,0.27675 -0.58223,1.60063 z" />
      <path
         inkscape:connector-curvature="0"
         id="path900"
         style="font-style:normal;font-variant:normal;font-weight:normal;font-stretch:condensed;font-size:28px;line-height:100%;font-family:Impact;writing-mode:lr-tb;text-anchor:start;fill:#004b73;fill-opacity:1"
         d="m 335.48839,662.92456 4.57508,1.73926 -0.3498,0.92013 q -0.44696,1.17572 -0.42298,1.53587 0.006,0.36807 0.54308,0.57212 0.4345,0.16518 0.7635,-0.0462 0.32413,-0.19856 0.54275,-0.77364 0.29636,-0.77956 0.33501,-1.18903 0.021,-0.40155 -0.35054,-1.04011 -0.38434,-0.64341 -1.75546,-2.11537 -1.83139,-1.9541 -2.16503,-3.19256 -0.33365,-1.23845 0.3708,-3.09149 0.78704,-2.07028 1.72702,-2.92694 0.93512,-0.84388 2.41892,-0.93799 1.46617,-0.0862 3.24252,0.58912 1.96806,0.74817 3.14061,1.896 1.15978,1.14297 1.28536,2.39009 0.12558,1.24711 -0.68089,3.36852 l -0.31093,0.81789 -4.57509,-1.73927 0.4081,-1.07348 q 0.51984,-1.36741 0.50917,-1.83952 -0.0235,-0.47696 -0.53464,-0.67129 -0.54952,-0.20891 -0.86879,-0.0231 -0.32414,0.19856 -0.65936,1.08035 -0.46154,1.21406 -0.29698,1.62765 0.17733,0.41845 2.31332,2.9564 1.78893,2.14273 1.89381,3.36735 0.10003,1.2374 -0.4441,2.66871 -0.77247,2.03195 -1.67358,2.78637 -0.90597,0.7672 -2.38312,0.80533 -1.48992,0.0333 -3.18961,-0.61288 -1.6869,-0.64129 -2.69744,-1.52276 -1.02817,-0.87354 -1.38717,-1.81448 -0.37177,-0.94579 -0.27122,-1.59501 0.0878,-0.65408 0.57359,-1.93204 z" />
      <path
         inkscape:connector-curvature="0"
         id="path902"
         style="font-style:normal;font-variant:normal;font-weight:normal;font-stretch:condensed;font-size:28px;line-height:100%;font-family:Impact;writing-mode:lr-tb;text-anchor:start;fill:#004b73;fill-opacity:1"
         d="m 316.99698,652.60606 2.18765,-3.86751 q 1.20489,-2.1301 1.98452,-3.00854 0.77289,-0.86654 1.96637,-1.3381 1.18675,-0.45966 2.52905,-0.25016 1.32366,0.21467 2.75167,1.02242 1.5946,0.90199 2.5061,1.87309 0.90476,0.98301 1.12642,2.03513 0.20303,1.0573 -0.10059,2.20499 -0.31036,1.15959 -1.44794,3.17069 l -2.28861,4.04601 q -1.24528,2.20151 -2.42133,3.16986 -1.17605,0.96835 -2.83772,1.01801 -1.66167,0.0496 -3.58948,-1.04081 -1.6184,-0.91544 -2.49672,-2.05628 -0.89696,-1.13566 -1.09013,-2.26591 -0.19317,-1.13026 0.0452,-2.07926 0.22646,-0.95572 1.17556,-2.63363 z m 4.13449,3.90942 q -0.68658,1.21381 -0.7307,1.59725 -0.0508,0.39534 0.37756,0.63767 0.4284,0.24232 0.75295,0.002 0.31781,-0.22863 1.00439,-1.44243 l 4.03201,-7.12812 q 0.63274,-1.1186 0.68514,-1.54448 0.0457,-0.41397 -0.37082,-0.64957 -0.42841,-0.24232 -0.73432,-0.007 -0.31781,0.22862 -0.8967,1.25203 z" />
      <path
         inkscape:connector-curvature="0"
         id="path904"
         style="font-style:normal;font-variant:normal;font-weight:normal;font-stretch:condensed;font-size:28px;line-height:100%;font-family:Impact;writing-mode:lr-tb;text-anchor:start;fill:#004b73;fill-opacity:1"
         d="m 305.98283,652.67032 1.06334,-1.28864 q -1.07524,0.44927 -2.0609,0.33698 -1.00477,-0.10935 -1.91996,-0.78025 -1.14675,-0.84066 -1.47842,-1.91444 -0.33166,-1.07379 0.0651,-2.05435 0.38865,-0.96954 1.79513,-2.88814 l 7.51737,-10.25457 4.45468,3.26561 -7.42846,10.13329 q -1.1074,1.51062 -1.25066,1.91416 -0.14326,0.40354 0.30883,0.73495 0.47413,0.34758 0.87833,0.0506 0.39612,-0.28598 1.6086,-1.93995 l 7.25064,-9.8907 4.45467,3.26561 -10.72641,14.63207 z" />
      <path
         inkscape:connector-curvature="0"
         id="path906"
         style="font-style:normal;font-variant:normal;font-weight:normal;font-stretch:condensed;font-size:28px;line-height:100%;font-family:Impact;writing-mode:lr-tb;text-anchor:start;fill:#004b73;fill-opacity:1"
         d="m 294.37176,630.44936 5.22738,4.87879 2.67727,-2.86856 q 0.83956,-0.89955 0.95216,-1.28069 0.11261,-0.38114 -0.25721,-0.72629 -0.45977,-0.42911 -0.92686,-0.22921 -0.48641,0.20057 -1.40993,1.19007 l -1.63248,1.74913 -3.82809,-3.57281 0.91419,-0.9795 q 1.1474,-1.22939 1.923,-1.7398 0.76561,-0.51975 2.03496,-0.73765 1.26935,-0.2179 2.50339,0.2232 1.21471,0.44176 2.53405,1.67312 1.27936,1.19404 1.91372,2.47804 0.63435,1.28401 0.58706,2.43675 -0.0666,1.15342 -0.57502,2.11893 -0.51773,0.9755 -1.89834,2.45476 l -3.61012,3.86807 q -1.62315,1.73912 -3.02576,2.30019 -1.41194,0.57105 -2.97581,0.10264 -1.5732,-0.45842 -2.96251,-1.75507 -1.69915,-1.58584 -2.19225,-3.26165 -0.51242,-1.67514 0.046,-3.15505 0.53904,-1.47925 2.33943,-3.40829 z m 2.03302,5.93695 -0.90486,0.96952 q -0.96084,1.02948 -1.13074,1.43194 -0.16991,0.40247 0.16992,0.71963 0.41979,0.3918 0.76228,0.22521 0.33316,-0.15659 1.37795,-1.27603 l 0.90486,-0.96951 z" />
      <path
         inkscape:connector-curvature="0"
         id="path908"
         style="font-style:normal;font-variant:normal;font-weight:normal;font-stretch:condensed;font-size:28px;line-height:100%;font-family:Impact;writing-mode:lr-tb;text-anchor:start;fill:#004b73;fill-opacity:1"
         d="m 278.82175,616.43496 3.50514,-2.73082 q 1.93053,-1.50405 2.98773,-2.01573 1.0464,-0.50328 2.32946,-0.48035 1.27227,0.0313 2.43119,0.74027 1.13972,0.70654 2.14802,2.00075 1.12594,1.4452 1.59461,2.69188 0.45788,1.25509 0.25849,2.31166 -0.21858,1.05419 -0.93967,1.99728 -0.73187,0.95148 -2.55455,2.37151 l -3.66693,2.85685 q -1.99523,1.55447 -3.45298,1.99693 -1.45775,0.44246 -3.01107,-0.14983 -1.55333,-0.59229 -2.91453,-2.33947 -1.14275,-1.46677 -1.5156,-2.85743 -0.39205,-1.39304 -0.13635,-2.51081 0.2557,-1.11777 0.84022,-1.90246 0.57612,-0.79548 2.09682,-1.98023 z m 2.3161,5.19742 q -1.10007,0.85706 -1.28806,1.19416 -0.19877,0.3455 0.10372,0.73376 0.30249,0.38827 0.69452,0.29082 0.38124,-0.0891 1.48132,-0.9461 l 6.46026,-5.03311 q 1.0138,-0.78984 1.22574,-1.16293 0.20115,-0.36469 -0.0929,-0.74217 -0.30249,-0.38826 -0.67533,-0.28843 -0.38124,0.089 -1.30876,0.81166 z" />
      <path
         inkscape:connector-curvature="0"
         id="path910"
         style="font-style:normal;font-variant:normal;font-weight:normal;font-stretch:condensed;font-size:28px;line-height:100%;font-family:Impact;writing-mode:lr-tb;text-anchor:start;fill:#004b73;fill-opacity:1"
         d="m 264.73202,613.62355 2.36008,-1.51174 q 0.92179,1.43908 1.22955,1.61537 0.28888,0.17216 0.91056,-0.22605 l 0.48353,-0.30973 -1.25364,-1.95713 2.41764,-1.54861 0.70793,1.1052 12.49115,-8.00115 2.97923,4.65108 -12.49114,8.00115 0.61207,0.95555 -2.41764,1.54861 -0.61207,-0.95555 q -1.50815,0.96604 -2.08107,1.1869 -0.57293,0.22086 -1.22245,0.0686 -0.66842,-0.15635 -1.3476,-0.76041 -0.67919,-0.60407 -1.67472,-2.15827 z" />
      <path
         inkscape:connector-curvature="0"
         id="path912"
         style="font-style:normal;font-variant:normal;font-weight:normal;font-stretch:condensed;font-size:28px;line-height:100%;font-family:Impact;writing-mode:lr-tb;text-anchor:start;fill:#004b73;fill-opacity:1"
         d="m 259.45176,600.40306 2.55859,-1.27219 -0.66348,-1.33438 2.57083,-1.27828 0.66349,1.33439 8.69187,-4.32179 q 1.60371,-0.7974 1.70821,-1.04785 0.0984,-0.2627 -0.5042,-1.47466 l 2.6198,-1.30263 0.99218,1.99546 q 0.84001,1.68941 1.06448,2.47865 0.21223,0.79532 -0.0158,1.59578 -0.24026,0.80655 -0.82213,1.26383 -0.59411,0.46336 -3.01804,1.66859 l -8.25116,4.10266 0.52957,1.06506 -2.57083,1.27827 -0.52957,-1.06506 -2.5586,1.27219 z" />
      <path
         inkscape:connector-curvature="0"
         id="path914"
         style="font-style:normal;font-variant:normal;font-weight:normal;font-stretch:condensed;font-size:28px;line-height:100%;font-family:Impact;writing-mode:lr-tb;text-anchor:start;fill:#004b73;fill-opacity:1"
         d="m 253.96951,591.63956 4.64386,-1.78907 q -0.86796,-0.42749 -1.46905,-1.075 -0.606,-0.66027 -0.94514,-1.54056 -0.52099,-1.35233 -0.19578,-2.56182 0.3203,-1.22225 1.14747,-1.77534 0.80949,-0.56094 3.19521,-1.48005 l 11.67343,-4.49724 1.98567,5.15418 -11.91583,4.59062 q -1.47991,0.57014 -1.84194,0.88543 -0.36695,0.30253 -0.17035,0.81285 0.18186,0.47204 0.67952,0.47078 0.49766,-10e-4 1.78621,-0.49767 l 12.08168,-4.65452 1.98567,5.15417 -20.65496,7.95741 z" />
      <path
         inkscape:connector-curvature="0"
         id="path916"
         style="font-style:normal;font-variant:normal;font-weight:normal;font-stretch:condensed;font-size:28px;line-height:100%;font-family:Impact;writing-mode:lr-tb;text-anchor:start;fill:#004b73;fill-opacity:1"
         d="m 256.94687,565.92427 4.30423,-1.1032 q 2.37063,-0.60761 3.54421,-0.65436 1.16034,-0.0433 2.32741,0.49023 1.15382,0.53698 1.93304,1.64985 0.76258,1.10301 1.16992,2.69227 0.45486,1.77466 0.38647,3.10478 -0.0816,1.3335 -0.68649,2.22245 -0.62151,0.8791 -1.65931,1.4556 -1.05104,0.5799 -3.28924,1.15356 l -4.50289,1.15412 q -2.4501,0.62798 -3.96323,0.45126 -1.51313,-0.17673 -2.70051,-1.34023 -1.18739,-1.1635 -1.73729,-3.30899 -0.46165,-1.80116 -0.24792,-3.22498 0.19709,-1.43367 0.87803,-2.35623 0.68094,-0.92256 1.53027,-1.40841 0.84593,-0.4991 2.7133,-0.97772 z m 0.047,5.68994 q -1.35087,0.34623 -1.65787,0.58017 -0.32024,0.23734 -0.19804,0.71411 0.1222,0.47678 0.52052,0.54405 0.38507,0.0707 1.73594,-0.27557 l 7.93302,-2.03329 q 1.24492,-0.31908 1.58825,-0.57644 0.33009,-0.25397 0.21129,-0.71751 -0.1222,-0.47677 -0.50388,-0.5342 -0.38507,-0.0707 -1.52404,0.22126 z" />
      <path
         inkscape:connector-curvature="0"
         id="path918"
         style="font-style:normal;font-variant:normal;font-weight:normal;font-stretch:condensed;font-size:28px;line-height:100%;font-family:Impact;writing-mode:lr-tb;text-anchor:start;fill:#004b73;fill-opacity:1"
         d="m 254.245,551.71953 0.67602,4.84762 -0.97494,0.13596 q -1.24576,0.17372 -1.54997,0.36799 -0.31964,0.18262 -0.24033,0.75133 0.0642,0.46039 0.40774,0.64716 0.33,0.18865 0.93934,0.10367 0.82599,-0.11518 1.20357,-0.27827 0.36215,-0.17474 0.74323,-0.80766 0.37919,-0.64646 1.01009,-2.55659 0.83217,-2.54558 1.75742,-3.43384 0.92524,-0.88826 2.88867,-1.16206 2.19361,-0.30591 3.39681,0.10608 1.18966,0.41387 1.98594,1.66944 0.78085,1.24392 1.04333,3.12609 0.2908,2.08529 -0.15145,3.66543 -0.44413,1.56659 -1.47706,2.2766 -1.03293,0.71002 -3.28071,1.02348 l -0.86661,0.12085 -0.67602,-4.84762 1.13743,-0.15862 q 1.44887,-0.20205 1.85763,-0.43851 0.40687,-0.24999 0.33134,-0.79163 -0.0812,-0.58225 -0.39766,-0.77279 -0.33,-0.18866 -1.26432,-0.0584 -1.28638,0.17939 -1.56981,0.52261 -0.28155,0.35675 -1.47905,3.45023 -1.01797,2.5991 -2.04113,3.28015 -1.03671,0.68293 -2.55328,0.89443 -2.15299,0.30024 -3.24787,-0.12686 -1.10841,-0.4252 -1.85241,-1.70186 -0.7459,-1.29021 -0.99704,-3.09114 -0.24926,-1.78739 0.0374,-3.09735 0.27124,-1.32161 0.92346,-2.08897 0.65033,-0.7809 1.26787,-1.00506 0.61564,-0.2377 1.96973,-0.42653 z" />
      <path
         inkscape:connector-curvature="0"
         id="path920"
         style="font-style:normal;font-variant:normal;font-weight:normal;font-stretch:condensed;font-size:28px;line-height:100%;font-family:Impact;writing-mode:lr-tb;text-anchor:start;fill:#004b73;fill-opacity:1"
         d="m 257.22037,535.82889 0.18252,7.14807 3.92255,-0.10017 q 1.23007,-0.0314 1.58089,-0.21816 0.35081,-0.18675 0.3379,-0.69244 -0.0161,-0.62871 -0.48598,-0.82185 -0.48394,-0.20646 -1.83702,-0.17191 l -2.3918,0.0611 -0.13367,-5.23462 1.33941,-0.0342 q 1.68109,-0.0429 2.58873,0.15272 0.90728,0.18197 1.95223,0.93484 1.04495,0.75287 1.59503,1.94234 0.53605,1.17615 0.58212,2.98025 0.0447,1.74943 -0.42682,3.10175 -0.47149,1.35232 -1.32701,2.12636 -0.86954,0.76073 -1.9146,1.07462 -1.05873,0.31424 -3.08151,0.36589 l -5.28929,0.13506 q -2.37813,0.0607 -3.76127,-0.54674 -1.39682,-0.60712 -2.15853,-2.05103 -0.77539,-1.44357 -0.8239,-3.34334 -0.0593,-2.32346 0.79066,-3.84956 0.83598,-1.53942 2.28304,-2.17813 1.43304,-0.65203 4.07085,-0.71939 z m -2.81082,5.61069 -1.32574,0.0339 q -1.40774,0.036 -1.81393,0.19676 -0.40618,0.16081 -0.39432,0.6255 0.0147,0.57403 0.37351,0.70163 0.34517,0.12795 1.87592,0.0889 l 1.32574,-0.0339 z" />
      <path
         inkscape:connector-curvature="0"
         id="path922"
         style="font-style:normal;font-variant:normal;font-weight:normal;font-stretch:condensed;font-size:28px;line-height:100%;font-family:Impact;writing-mode:lr-tb;text-anchor:start;fill:#004b73;fill-opacity:1"
         d="m 246.06882,513.46008 21.93825,2.94292 -0.73437,5.4744 -1.30084,-0.1745 q 0.7076,0.89499 0.99778,1.81676 0.29018,0.92176 0.16293,1.87029 -0.17086,1.27375 -0.96026,2.11967 -0.80295,0.84409 -1.72009,0.99695 -0.91532,0.13931 -2.90724,-0.1279 l -8.41486,-1.12882 q -2.07323,-0.27811 -2.90592,-0.65191 -0.83088,-0.38735 -1.35406,-1.42313 -0.53673,-1.03761 -0.36041,-2.352 0.13633,-1.01629 0.61489,-1.80734 0.48038,-0.80461 1.30482,-1.39752 l -5.09499,-0.68347 z m 7.74824,6.6123 q -0.98919,-0.13269 -1.35158,-0.002 -0.36058,0.11716 -0.42783,0.61853 -0.0654,0.48782 0.22259,0.70578 0.2763,0.2026 1.33324,0.34438 l 8.80782,1.18154 q 1.09759,0.14723 1.47172,0.0319 0.36057,-0.11716 0.42238,-0.57788 0.0709,-0.52847 -0.2849,-0.75552 -0.36933,-0.22887 -1.87344,-0.43064 z" />
      <path
         inkscape:connector-curvature="0"
         id="path924"
         style="font-style:normal;font-variant:normal;font-weight:normal;font-stretch:condensed;font-size:28px;line-height:100%;font-family:Impact;writing-mode:lr-tb;text-anchor:start;fill:#004b73;fill-opacity:1"
         d="m 263.02918,500.15322 -1.77735,6.92597 3.80068,0.97534 q 1.19185,0.30585 1.58034,0.22205 0.38849,-0.0838 0.51423,-0.57378 0.15632,-0.60917 -0.24296,-0.92335 -0.40912,-0.33083 -1.72015,-0.66727 l -2.31749,-0.59472 1.30158,-5.07198 1.29779,0.33304 q 1.62886,0.418 2.44851,0.85418 0.82305,0.42293 1.62255,1.43265 0.7995,1.00972 1.00367,2.30422 0.19432,1.27786 -0.25426,3.02591 -0.43499,1.69507 -1.25802,2.86713 -0.82302,1.17205 -1.85747,1.68291 -1.04429,0.49421 -2.13535,0.51063 -1.10431,0.013 -3.06424,-0.48993 l -5.12495,-1.31517 q -2.30425,-0.59132 -3.4688,-1.55357 -1.1778,-0.96564 -1.51604,-2.56274 -0.35148,-1.60049 0.12089,-3.44123 0.57773,-2.25127 1.81233,-3.48709 1.22476,-1.25245 2.79126,-1.4715 1.55666,-0.2357 4.11252,0.42019 z m -4.23678,4.62928 -1.28455,-0.32965 q -1.36401,-0.35003 -1.79868,-0.30631 -0.43466,0.0437 -0.55021,0.49397 -0.14273,0.5562 0.1676,0.77699 0.29709,0.21738 1.78028,0.598 l 1.28455,0.32964 z" />
      <path
         inkscape:connector-curvature="0"
         id="path926"
         style="font-style:normal;font-variant:normal;font-weight:normal;font-stretch:condensed;font-size:28px;line-height:100%;font-family:Impact;writing-mode:lr-tb;text-anchor:start;fill:#004b73;fill-opacity:1"
         d="m 263.47016,491.99542 -1.85808,4.83704 -1.13588,-0.43633 q -1.96544,-0.755 -2.85315,-1.6086 -0.89557,-0.87127 -1.1878,-2.55064 -0.29223,-1.67937 0.54611,-3.86178 1.00503,-2.61634 2.44657,-3.58576 1.42878,-0.97433 2.88457,-0.72267 1.44303,0.24675 5.64194,1.8597 l 8.49991,3.26512 -1.92671,5.01572 -1.50599,-0.57851 q 0.72475,0.82031 0.89495,1.74979 0.16234,0.91183 -0.23477,1.9456 -0.51967,1.35284 -1.709,2.19946 -1.19718,0.82896 -3.76247,-0.15646 l -1.39113,-0.53438 q -1.90163,-0.73049 -2.36039,-1.59507 -0.45876,-0.86459 -0.46579,-3.59142 -0.0199,-2.92217 -0.29583,-3.23321 -0.27595,-0.31105 -1.33525,-0.71796 -1.32731,-0.50987 -1.8014,-0.45765 -0.48194,0.0346 -0.65843,0.49401 -0.20101,0.52327 0.0946,0.78326 0.2828,0.2551 1.69945,0.79928 z m 2.95033,-0.74134 q 0.43059,1.58606 0.96476,2.02558 0.53907,0.42677 1.6877,0.868 1.31455,0.50497 1.76117,0.48613 0.45151,-0.0316 0.64762,-0.54211 0.18629,-0.48498 -0.0533,-0.73812 -0.24747,-0.27082 -1.52373,-0.76108 z" />
      <path
         inkscape:connector-curvature="0"
         id="path928"
         style="font-style:normal;font-variant:normal;font-weight:normal;font-stretch:condensed;font-size:28px;line-height:100%;font-family:Impact;writing-mode:lr-tb;text-anchor:start;fill:#004b73;fill-opacity:1"
         d="m 260.58458,471.41799 2.51536,1.23623 q -0.75379,1.53376 -0.74525,1.88833 0.002,0.33628 0.66489,0.66192 l 0.51534,0.25327 1.02516,-2.08591 2.57672,1.26638 -0.57892,1.17793 13.31304,6.54295 -2.43627,4.95711 -13.31304,-6.54295 -0.50052,1.01841 -2.57671,-1.26637 0.50052,-1.01842 q -1.60738,-0.78998 -2.09299,-1.16575 -0.48561,-0.37576 -0.69173,-1.01025 -0.21236,-0.65278 -0.0473,-1.54662 0.16508,-0.89383 0.97918,-2.55029 z" />
      <path
         inkscape:connector-curvature="0"
         id="path930"
         style="font-style:normal;font-variant:normal;font-weight:normal;font-stretch:condensed;font-size:28px;line-height:100%;font-family:Impact;writing-mode:lr-tb;text-anchor:start;fill:#004b73;fill-opacity:1"
         d="m 274.84145,468.91588 3.30432,1.90565 -3.6269,6.28887 -3.30432,-1.90566 z" />
      <path
         inkscape:connector-curvature="0"
         id="path932"
         style="font-style:normal;font-variant:normal;font-weight:normal;font-stretch:condensed;font-size:28px;line-height:100%;font-family:Impact;writing-mode:lr-tb;text-anchor:start;fill:#004b73;fill-opacity:1"
         d="m 273.64252,457.67496 1.31953,1.11155 q -0.43357,-1.12975 -0.30398,-2.14407 0.11866,-1.02253 0.80048,-1.92962 1.33078,-1.77047 3.73407,-1.55465 -0.40072,-1.17347 -0.27934,-2.17686 0.11044,-1.0116 0.75119,-1.86405 0.84611,-1.12566 1.94294,-1.44716 1.10504,-0.33243 2.05892,0.0596 0.94296,0.38381 2.72435,1.7228 l 10.30587,7.74646 -3.22015,4.28409 -9.45343,-7.1057 q -1.8579,-1.3965 -2.39363,-1.59394 -0.53844,-0.21659 -0.88346,0.24242 -0.35323,0.46994 -0.0229,0.9406 0.33858,0.45974 2.20741,1.86445 l 9.45342,7.10571 -3.22016,4.28409 -9.21299,-6.92498 q -2.13112,-1.60187 -2.63949,-1.81295 -0.50015,-0.22202 -0.85339,0.24792 -0.22179,0.29508 -0.14837,0.67524 0.0625,0.37194 0.37393,0.64024 0.30051,0.26008 1.34968,1.04869 l 10.05451,7.55752 -3.22016,4.28409 -14.50254,-10.90089 z" />
      <path
         inkscape:connector-curvature="0"
         id="path934"
         style="font-style:normal;font-variant:normal;font-weight:normal;font-stretch:condensed;font-size:28px;line-height:100%;font-family:Impact;writing-mode:lr-tb;text-anchor:start;fill:#004b73;fill-opacity:1"
         d="m 294.44351,434.10862 12.73427,12.92252 -4.00238,3.94407 -0.98743,-1.13837 q 0.23395,1.0555 -0.0435,1.98157 -0.27735,0.90673 -1.0564,1.67443 -0.88617,0.87326 -1.77754,1.13742 -0.89137,0.26416 -1.68238,0.0263 -0.78127,-0.24743 -1.39643,-0.73533 -0.62475,-0.49764 -2.26571,-2.16286 l -8.58868,-8.71564 3.93422,-3.8769 8.66544,8.79355 q 1.48742,1.50941 1.85336,1.70545 0.37567,0.18644 0.78467,-0.2166 0.43822,-0.43184 0.22824,-0.80075 -0.20025,-0.37851 -1.76444,-1.96583 l -8.56948,-8.69617 z" />
      <path
         inkscape:connector-curvature="0"
         id="path936"
         style="font-style:normal;font-variant:normal;font-weight:normal;font-stretch:condensed;font-size:28px;line-height:100%;font-family:Impact;writing-mode:lr-tb;text-anchor:start;fill:#004b73;fill-opacity:1"
         d="m 300.31848,426.16565 1.80306,2.21672 1.15609,-0.94035 1.81168,2.22732 -1.15608,0.94035 6.12522,7.53048 q 1.13014,1.38943 1.39743,1.43637 0.2779,0.0383 1.32792,-0.81576 l 1.84619,2.26975 -1.72882,1.40621 q -1.46367,1.19053 -2.18434,1.58286 -0.7293,0.38172 -1.5603,0.33508 -0.83962,-0.0572 -1.41352,-0.52448 -0.58253,-0.47784 -2.29069,-2.57789 l -5.81465,-7.14865 -0.92275,0.75055 -1.81168,-2.22732 0.92275,-0.75056 -1.80306,-2.21672 z" />
      <path
         inkscape:connector-curvature="0"
         id="path938"
         style="font-style:normal;font-variant:normal;font-weight:normal;font-stretch:condensed;font-size:28px;line-height:100%;font-family:Impact;writing-mode:lr-tb;text-anchor:start;fill:#004b73;fill-opacity:1"
         d="m 320.91722,426.14478 -5.94598,3.97158 2.17944,3.26289 q 0.68344,1.02321 1.02868,1.22009 0.34523,0.19687 0.76589,-0.0841 0.52297,-0.34932 0.43531,-0.84977 -0.0839,-0.51942 -0.83567,-1.64495 l -1.32892,-1.98957 4.35432,-2.90844 0.7442,1.11416 q 0.93404,1.39839 1.25333,2.27024 0.33066,0.86426 0.25216,2.14978 -0.0785,1.28553 -0.79039,2.38581 -0.70813,1.08131 -2.20884,2.0837 -1.45523,0.97201 -2.85036,1.29555 -1.39513,0.32355 -2.50643,0.0136 -1.10753,-0.32891 -1.931,-1.04485 -0.83107,-0.72731 -1.95496,-2.40992 l -2.93881,-4.3998 q -1.32133,-1.9782 -1.54637,-3.47201 -0.23264,-1.50518 0.58137,-2.92028 0.80641,-1.42646 2.3867,-2.48201 1.93273,-1.29095 3.67692,-1.38729 1.74796,-0.1153 3.06074,0.76705 1.31655,0.86339 2.78216,3.05761 z m -6.24471,0.6198 -0.7366,-1.10279 q -0.78216,-1.171 -1.13504,-1.42854 -0.35287,-0.25754 -0.73942,6.5e-4 -0.47749,0.31894 -0.39374,0.69047 0.0761,0.36017 0.92666,1.63349 l 0.7366,1.1028 z" />
      <path
         inkscape:connector-curvature="0"
         id="path940"
         style="font-style:normal;font-variant:normal;font-weight:normal;font-stretch:condensed;font-size:28px;line-height:100%;font-family:Impact;writing-mode:lr-tb;text-anchor:start;fill:#004b73;fill-opacity:1"
         d="m 331.73976,416.38534 -4.3499,2.24384 -0.45128,-0.87484 q -0.57663,-1.11785 -0.86071,-1.34051 -0.2782,-0.24109 -0.78852,0.0221 -0.41312,0.2131 -0.47552,0.59912 -0.0687,0.37386 0.21338,0.92064 0.38233,0.74118 0.6613,1.0434 0.28485,0.28381 1.00827,0.43369 0.73558,0.1436 2.74685,0.10605 2.67752,-0.0582 3.82215,0.52055 1.14463,0.57872 2.05345,2.34055 1.01537,1.96839 1.02526,3.24013 0.004,1.25958 -0.91722,2.42686 -0.91498,1.14886 -2.60391,2.02008 -1.87118,0.96522 -3.50859,1.07145 -1.62526,0.0999 -2.63739,-0.63942 -1.01212,-0.73937 -2.05256,-2.75636 l -0.40114,-0.77764 4.3499,-2.24384 0.52649,1.02065 q 0.67064,1.30011 1.02917,1.60745 0.37067,0.30107 0.85669,0.0504 0.52248,-0.26951 0.59742,-0.63123 0.0687,-0.37386 -0.36381,-1.21225 -0.59543,-1.1543 -1.01317,-1.30802 -0.42989,-0.14746 -3.74539,-0.25247 -2.78957,-0.0994 -3.77113,-0.83916 -0.98782,-0.7519 -1.68981,-2.11276 -0.99656,-1.93194 -0.95632,-3.10648 0.034,-1.18668 0.99206,-2.31163 0.97023,-1.13121 2.58625,-1.96481 1.60387,-0.82734 2.93483,-0.99085 1.33683,-0.18193 2.27693,0.17923 0.95226,0.35489 1.36834,0.86329 0.42824,0.50213 1.05501,1.71719 z" />
    </g>
    <circle
       transform="rotate(-109.91014)"
       id="path1515"
       style="fill:none;fill-opacity:0.75;fill-rule:evenodd;stroke:none;stroke-width:0.22533941px;stroke-linecap:butt;stroke-linejoin:miter;stroke-opacity:1"
       cx="-66.957466"
       cy="31.959753"
       r="32.426422" />
    <path
       style="font-size:12px;fill:#004b73;fill-opacity:0.99610003;fill-rule:evenodd;stroke:none;stroke-width:1.25"
       d="M 199.72656 37.753906 C 111.73894 37.753906 40.427734 108.95429 40.427734 196.77734 C 40.427734 284.65525 111.73894 355.85742 199.72656 355.85742 C 282.37583 355.85742 350.27788 293.11138 358.28711 212.72656 L 347.66211 212.72656 C 339.56954 286.97325 276.41342 344.83203 199.72656 344.83203 C 117.49873 344.83203 50.904297 278.40243 50.904297 196.55859 C 50.904297 114.65989 117.49873 48.285156 199.72656 48.285156 C 276.84263 48.285156 340.28417 106.74212 347.80078 181.62695 L 358.35547 181.62695 C 350.71206 100.91136 282.64501 37.753906 199.72656 37.753906 z "
       transform="scale(0.26458333)"
       id="path663" />
    <rect
       y="48.05563"
       x="75.64537"
       height="8.228137"
       width="19.607056"
       id="rect875"
       style="font-size:12px;fill:#ffffff;fill-opacity:1;fill-rule:evenodd;stroke:none;stroke-width:0.26458332;stroke-opacity:1" />
    <path
       style="font-size:12px;fill:#004b73;fill-opacity:1;fill-rule:evenodd;stroke:none;stroke-width:1.25"
       d="M 192.77734 76.787109 L 192.77734 82.261719 C 136.93428 85.130985 91.603834 127.4673 84.164062 181.88672 L 105.49414 181.88672 C 105.49459 181.88407 105.49565 181.88156 105.49609 181.87891 L 362.21094 181.87891 L 362.21094 181.875 C 369.05402 183.54008 374.16602 189.7175 374.16602 197.10742 C 374.16602 205.22093 367.93255 211.91704 360.00977 212.66602 L 360.00977 212.72656 L 358.80273 212.72656 C 358.71152 212.72814 358.62283 212.74023 358.53125 212.74023 C 358.43888 212.74023 358.3498 212.72815 358.25781 212.72656 L 329.28516 212.72656 C 335.02849 223.62363 346.46248 231.0625 359.62891 231.0625 C 378.49907 231.0625 393.85937 215.70235 393.85938 196.77734 C 393.85938 177.90718 378.49907 162.54883 359.62891 162.54883 C 358.46139 162.54883 357.3133 162.62801 356.17578 162.74219 L 309.17578 162.74219 C 295.26973 118.90091 255.90117 86.38456 208.41992 82.494141 L 208.41992 76.787109 L 192.77734 76.787109 z M 200.36523 102.06836 C 241.00947 102.06836 275.74905 127.21211 289.82031 162.74219 L 110.85742 162.74219 C 124.93007 127.21169 159.67878 102.06836 200.36523 102.06836 z M 83.332031 190.2207 C 83.174762 192.688 83.085938 195.17456 83.085938 197.68164 C 83.085937 261.47815 134.86901 313.20508 198.83008 313.20508 C 257.62845 313.20508 306.20721 269.41573 313.59766 212.72656 L 295.38086 212.72656 C 288.22868 258.61835 248.40621 293.73242 200.36523 293.73242 C 147.21065 293.73242 104.15039 250.83558 104.15039 197.90039 C 104.15039 195.31508 104.25545 192.7543 104.45703 190.2207 L 83.332031 190.2207 z "
       transform="scale(0.26458333)"
       id="path666" />
    <path
       id="path691"
       d="m 75.485715,56.287674 c -1.959356,10.595038 -11.262669,18.621142 -22.423744,18.621142 -11.161075,0 -20.464391,-8.026104 -22.438262,-18.621142 h 5.703906 c 1.828731,7.532637 8.635683,13.105918 16.734356,13.105918 8.098674,0 14.905622,-5.573281 16.734356,-13.105918 z m -39.1581,0 h 33.468712"
       style="font-size:12px;fill:#004b73;fill-rule:evenodd;stroke-width:0.26458332"
       inkscape:connector-curvature="0" />
    <rect
       y="56.283844"
       x="33.367203"
       height="4.8455381"
       width="39.416077"
       id="rect709"
       style="font-size:12px;fill:#004b73;fill-opacity:1;fill-rule:evenodd;stroke-width:0.26458332" />
    <path
       sodipodi:nodetypes="ccc"
       id="path716"
       d="m 47.359946,55.002799 c -4.582117,-3.645993 -7.189578,-3.645993 -11.627768,0 1.474272,-6.602201 9.807837,-6.602201 11.627768,0 z"
       style="font-size:12px;fill:#004b73;fill-opacity:1;fill-rule:evenodd;stroke:none;stroke-width:0.26458332"
       inkscape:connector-curvature="0" />
    <path
       sodipodi:nodetypes="ccc"
       id="path741"
       d="m 69.876488,55.002799 c -4.582118,-3.645993 -7.189579,-3.645993 -11.627768,0 1.474271,-6.602201 9.807837,-6.602201 11.627768,0 z"
       style="font-size:12px;fill:#004b73;fill-opacity:1;fill-rule:evenodd;stroke:none;stroke-width:0.26458332"
       inkscape:connector-curvature="0" />
    <rect
       y="56.271732"
       x="79.286934"
       height="4.8576469"
       width="15.719137"
       id="rect672"
       style="font-size:12px;fill:#004b73;fill-opacity:1;fill-rule:evenodd;stroke-width:0.26458332" />
  </g>
</svg>
